# xmcd CD database file generated by OrangeCD 6.4
#
# Track frame offsets:
#	150
#	15967
#	27534
#	40774
#	46248
#	62345
#	85575
#	102697
#	115371
#	152860
#
# Disc length: 2314 seconds
#
# Revision: 0
# Processed by: cddbd v1.5.2PL0 Copyright (c) Steve Scherf et al.
# Submitted via: OrangeCD 6.4
#
DISCID=7409080a
DTITLE=David Karsten Daniels and Fight the Big Bull - I Mean to Live Here
DYEAR=2010
DGENRE=
TTITLE0=All Things Are Current Found
TTITLE1=The Funeral Bell
TTITLE2=Die And Be Buried
TTITLE3=October Airs
TTITLE4=On Fields
TTITLE5=Through All The Fates
TTITLE6=Salmon Brook
TTITLE7=Smoke
TTITLE8=Each Summer Sound
TTITLE9=Epitaph On The World
EXTD=
EXTT0=
EXTT1=
EXTT2=
EXTT3=
EXTT4=
EXTT5=
EXTT6=
EXTT7=
EXTT8=
EXTT9=
PLAYORDER=
